<svg width="39" height="46" viewBox="0 0 39 46" fill="none" xmlns="http://www.w3.org/2000/svg">
<path d="M15.0503 31.8889H3.92761V43M23.9485 14.1111H35.0711V3M3 16.3409C4.24726 13.257 6.33554 10.5845 9.02748 8.62717C11.7194 6.66981 14.9098 5.5056 18.2308 5.2678C21.5519 5.02999 24.871 5.72756 27.8149 7.28136C30.7588 8.83516 33.2053 11.1834 34.8801 14.0581M36 29.6602C34.7527 32.744 32.6645 35.4165 29.9725 37.3739C27.2806 39.3312 24.0934 40.494 20.7724 40.7318C17.4514 40.9696 14.1295 40.2721 11.1856 38.7183C8.24172 37.1645 5.79361 34.8167 4.11879 31.9421" stroke="#FFC09E" stroke-width="6" stroke-linecap="round" stroke-linejoin="round"/>
</svg>
