<svg width="54" height="41" viewBox="0 0 54 41" fill="none" xmlns="http://www.w3.org/2000/svg">
<path d="M12.6244 11.0769H41.3777M12.6244 11.0769C11.1333 11.0769 10.3859 11.0769 9.81642 11.3704C9.31547 11.6285 8.90847 12.0401 8.65323 12.5466C8.36305 13.1226 8.36305 13.877 8.36305 15.3849V29.3849C8.36305 32.4005 8.36305 33.9086 8.9434 35.0605C9.4539 36.0737 10.2679 36.8974 11.2698 37.4137C12.4077 38 13.898 38 16.8743 38H37.1237C40.0999 38 41.5881 38 42.726 37.4137C43.7279 36.8974 44.5456 36.0735 45.0561 35.0603C45.6359 33.9096 45.6359 32.4044 45.6359 29.3946V15.3604C45.6359 13.8689 45.6359 13.1194 45.3473 12.5466C45.092 12.0401 44.6832 11.6285 44.1822 11.3704C43.6127 11.0769 42.8687 11.0769 41.3777 11.0769M12.6244 11.0769H8.29731C6.03673 11.0769 4.9071 11.0769 4.26553 10.6773C3.40936 10.144 2.92393 9.16752 3.00976 8.15435C3.07413 7.39447 3.74699 6.47547 5.09492 4.63529C5.48478 4.10306 5.67976 3.83687 5.91839 3.63364C6.23658 3.36265 6.61415 3.17021 7.01888 3.07295C7.32242 3 7.64822 3 8.30325 3H45.6942C46.3493 3 46.6759 3 46.9795 3.07295C47.3842 3.17021 47.7616 3.36265 48.0798 3.63364C48.3185 3.83687 48.5141 4.10181 48.904 4.63405C50.2519 6.4742 50.9259 7.39432 50.9903 8.1542C51.0761 9.16737 50.5889 10.144 49.7327 10.6773C49.0912 11.0769 47.9589 11.0769 45.6983 11.0769H41.3777M21.6748 24.5385H32.3241" stroke="#FFC09E" stroke-width="6" stroke-linecap="round" stroke-linejoin="round"/>
</svg>
