<svg width="44" height="50" viewBox="0 0 44 50" fill="none" xmlns="http://www.w3.org/2000/svg">
<path d="M7.75 10.3333V39.1778C7.75 41.9158 7.75 43.2839 8.26772 44.3297C8.72312 45.2496 9.44925 45.999 10.343 46.4677C11.3581 47 12.6876 47 15.3427 47H28.6573C31.3124 47 32.64 47 33.6551 46.4677C34.5488 45.999 35.2774 45.2496 35.7328 44.3297C36.25 43.2849 36.25 41.918 36.25 39.1853V10.3333M7.75 10.3333H12.5M7.75 10.3333H3M12.5 10.3333H31.5M12.5 10.3333C12.5 8.0554 12.5 6.91699 12.8616 6.01855C13.3437 4.82064 14.2678 3.86834 15.4316 3.37214C16.3046 3 17.4118 3 19.625 3H24.375C26.5882 3 27.6948 3 28.5677 3.37214C29.7316 3.86834 30.6561 4.82064 31.1382 6.01855C31.4998 6.91699 31.5 8.0554 31.5 10.3333M31.5 10.3333H36.25M36.25 10.3333H41" stroke="#FFC09E" stroke-width="6" stroke-linecap="round" stroke-linejoin="round"/>
</svg>
