<svg width="46" height="46" viewBox="0 0 46 46" fill="none" xmlns="http://www.w3.org/2000/svg">
<path d="M40.6575 30.3438L30.3438 40.6575C29.479 41.5222 29.0466 41.9534 28.542 42.2626C28.0946 42.5368 27.6073 42.7396 27.0971 42.8621C26.6658 42.9656 26.2141 42.9914 25.5 42.9979C25.2628 43 24.9966 43 24.6926 43H10.9923C8.19749 43 6.798 43 5.72949 42.4556C4.78868 41.9762 4.02433 41.2105 3.54497 40.2697C3 39.2001 3 37.8008 3 35.0005V11.0005C3 8.20023 3 6.79905 3.54497 5.72949C4.02433 4.78868 4.78868 4.02433 5.72949 3.54497C6.79905 3 8.20023 3 11.0005 3H35.0005C37.8008 3 39.1989 3 40.2685 3.54497C41.2093 4.02433 41.9762 4.78868 42.4556 5.72949C43 6.798 43 8.19749 43 10.9923V24.6868C43 24.9933 42.9999 25.2613 42.9977 25.5C42.9909 26.2136 42.9644 26.6647 42.8608 27.0959C42.7384 27.6061 42.5355 28.0946 42.2614 28.542C41.9522 29.0466 41.5222 29.479 40.6575 30.3438Z" fill="#1A00FF"/>
<path d="M25.5 42.9979C25.2628 43 24.9966 43 24.6926 43H10.9923C8.19749 43 6.798 43 5.72949 42.4556C4.78868 41.9762 4.02433 41.2105 3.54497 40.2697C3 39.2001 3 37.8008 3 35.0005V11.0005C3 8.20023 3 6.79905 3.54497 5.72949C4.02433 4.78868 4.78868 4.02433 5.72949 3.54497C6.79905 3 8.20023 3 11.0005 3H35.0005C37.8008 3 39.1989 3 40.2685 3.54497C41.2093 4.02433 41.9762 4.78868 42.4556 5.72949C43 6.798 43 8.19749 43 10.9923V24.6868C43 24.9933 42.9999 25.2613 42.9977 25.5M25.5 42.9979C26.2141 42.9914 26.6658 42.9656 27.0971 42.8621C27.6073 42.7396 28.0946 42.5368 28.542 42.2626C29.0466 41.9534 29.479 41.5222 30.3438 40.6575L40.6575 30.3438C41.5222 29.479 41.9522 29.0466 42.2614 28.542C42.5355 28.0946 42.7384 27.6061 42.8608 27.0959C42.9644 26.6647 42.9909 26.2136 42.9977 25.5M25.5 42.9979V29.5002C25.5 28.1001 25.5 27.3995 25.7725 26.8647C26.0122 26.3943 26.3943 26.0122 26.8647 25.7725C27.3995 25.5 28.0989 25.5 29.499 25.5H42.9977" stroke="white" stroke-width="4.5" stroke-linecap="round" stroke-linejoin="round"/>
</svg>
