<svg width="37" height="9" viewBox="0 0 37 9" fill="none" xmlns="http://www.w3.org/2000/svg">
<path d="M30.0059 4.47174C30.0059 5.73262 31.0232 6.75476 32.2781 6.75476C33.533 6.75476 34.5503 5.73262 34.5503 4.47174C34.5503 3.21086 33.533 2.18872 32.2781 2.18872C31.0232 2.18872 30.0059 3.21086 30.0059 4.47174Z" stroke="#D8E2E4" stroke-width="4.5" stroke-linecap="round" stroke-linejoin="round"/>
<path d="M16.3728 4.47174C16.3728 5.73262 17.3901 6.75476 18.645 6.75476C19.8999 6.75476 20.9172 5.73262 20.9172 4.47174C20.9172 3.21086 19.8999 2.18872 18.645 2.18872C17.3901 2.18872 16.3728 3.21086 16.3728 4.47174Z" stroke="#D8E2E4" stroke-width="4.5" stroke-linecap="round" stroke-linejoin="round"/>
<path d="M2.73965 4.47174C2.73965 5.73262 3.75695 6.75476 5.01184 6.75476C6.26674 6.75476 7.28403 5.73262 7.28403 4.47174C7.28403 3.21086 6.26674 2.18872 5.01184 2.18872C3.75695 2.18872 2.73965 3.21086 2.73965 4.47174Z" stroke="#D8E2E4" stroke-width="4.5" stroke-linecap="round" stroke-linejoin="round"/>
</svg>
