<svg width="44" height="43" viewBox="0 0 44 43" fill="none" xmlns="http://www.w3.org/2000/svg">
<path d="M5.11111 16.6974L18.005 26.468L18.0093 26.4716C19.441 27.5252 20.1573 28.0522 20.9418 28.2559C21.6353 28.4358 22.3642 28.4358 23.0576 28.2559C23.8428 28.0521 24.5612 27.5234 25.9954 26.468L38.8889 16.6974M38.4671 14.6625L26.6469 5.16586C25.1793 3.98671 24.4448 3.39733 23.6287 3.16328C22.9086 2.95677 22.1461 2.94583 21.4206 3.13225C20.5983 3.34353 19.8485 3.9121 18.3489 5.05001L5.68012 14.663C4.69691 15.4091 4.20593 15.7823 3.85145 16.2538C3.53749 16.6714 3.30352 17.1437 3.16096 17.6468C3 18.2149 3 18.8335 3 20.0704V33.2213C3 35.5942 3 36.7812 3.46019 37.6875C3.86499 38.4848 4.51044 39.1325 5.3049 39.5387C6.2072 40 7.38899 40 9.74903 40H34.251C36.611 40 37.7911 40 38.6934 39.5387C39.4879 39.1325 40.1355 38.4843 40.5403 37.6871C41 36.7816 41 35.5968 41 33.2286V19.9311C41 18.7508 41 18.157 40.8495 17.6085C40.7153 17.1194 40.4924 16.6585 40.1957 16.2476C39.8609 15.7839 39.3974 15.41 38.4671 14.6625Z" stroke="#FFC09E" stroke-width="5" stroke-linecap="round" stroke-linejoin="round"/>
</svg>
